<?xml version="1.0" encoding="utf-8"?>
<!-- Generator: Adobe Illustrator 28.2.0, SVG Export Plug-In . SVG Version: 6.00 Build 0)  -->
<svg version="1.1" id="Layer_1" xmlns="http://www.w3.org/2000/svg" xmlns:xlink="http://www.w3.org/1999/xlink" x="0px" y="0px"
	 viewBox="0 0 24 24" style="enable-background:new 0 0 24 24;" xml:space="preserve">
<g>
	<path d="M15.3,20.7c-0.3,0-0.6-0.1-0.8-0.3c-0.4-0.4-0.4-1.1,0-1.5l5.7-5.7H1.1c-0.6,0-1.1-0.5-1.1-1.1s0.5-1.1,1.1-1.1h19.1
		l-5.7-5.7c-0.4-0.4-0.4-1.1,0-1.5s1.1-0.4,1.5,0l7.6,7.6c0.1,0.1,0.2,0.2,0.2,0.4c0.1,0.1,0.1,0.3,0.1,0.4l0,0c0,0,0,0,0,0l0,0
		c0,0.1,0,0.3-0.1,0.4c-0.1,0.1-0.1,0.2-0.2,0.4L16,20.4C15.8,20.6,15.5,20.7,15.3,20.7z"/>
</g>
</svg>
