<?xml version="1.0" encoding="utf-8"?>
<!-- Generator: Adobe Illustrator 28.2.0, SVG Export Plug-In . SVG Version: 6.00 Build 0)  -->
<svg version="1.1" id="Layer_1" xmlns="http://www.w3.org/2000/svg" xmlns:xlink="http://www.w3.org/1999/xlink" x="0px" y="0px"
	 viewBox="0 0 24 24" style="enable-background:new 0 0 24 24;" xml:space="preserve">
<path d="M12,0.1C5.4,0.1,0.1,5.4,0.1,12S5.4,23.9,12,23.9S23.9,18.6,23.9,12S18.6,0.1,12,0.1z M17.3,15.9c0.4,0.4,0.4,1,0,1.4
	c-0.2,0.2-0.4,0.3-0.7,0.3s-0.5-0.1-0.7-0.3L12,13.4l-3.9,3.9c-0.4,0.4-1,0.4-1.4,0c-0.4-0.4-0.4-1,0-1.4l3.9-3.9L6.7,8.1
	c-0.4-0.4-0.4-1,0-1.4s1-0.4,1.4,0l3.9,3.9l3.9-3.9c0.4-0.4,1-0.4,1.4,0c0.4,0.4,0.4,1,0,1.4L13.4,12L17.3,15.9z"/>
</svg>
