<?xml version="1.0" encoding="utf-8"?>
<!-- Generator: Adobe Illustrator 28.2.0, SVG Export Plug-In . SVG Version: 6.00 Build 0)  -->
<svg version="1.1" id="Layer_1" xmlns="http://www.w3.org/2000/svg" xmlns:xlink="http://www.w3.org/1999/xlink" x="0px" y="0px"
	 viewBox="0 0 24 24" style="enable-background:new 0 0 24 24;" xml:space="preserve">
<g>
	<path d="M12,23.9C5.4,23.9,0.1,18.6,0.1,12S5.4,0.1,12,0.1S23.9,5.4,23.9,12S18.6,23.9,12,23.9z M12,2.2c-5.4,0-9.8,4.4-9.8,9.8
		c0,5.4,4.4,9.8,9.8,9.8c5.4,0,9.8-4.4,9.8-9.8C21.8,6.6,17.4,2.2,12,2.2z M12,17.4c-0.6,0-1.1-0.5-1.1-1.1V12
		c0-0.6,0.5-1.1,1.1-1.1s1.1,0.5,1.1,1.1v4.3C13.1,16.9,12.6,17.4,12,17.4z M12,8.7c-0.6,0-1.1-0.5-1.1-1.1s0.5-1.1,1.1-1.1h0
		c0.6,0,1.1,0.5,1.1,1.1S12.6,8.7,12,8.7z"/>
</g>
</svg>
