<svg width="22" height="22" viewBox="0 0 22 22" fill="none" xmlns="http://www.w3.org/2000/svg">
<path d="M11.0022 5.35828C7.88074 5.35828 5.36295 7.87607 5.36295 10.9975C5.36295 14.119 7.88074 16.6368 11.0022 16.6368C14.1237 16.6368 16.6415 14.119 16.6415 10.9975C16.6415 7.87607 14.1237 5.35828 11.0022 5.35828ZM11.0022 14.6638C8.98503 14.6638 7.33595 13.0196 7.33595 10.9975C7.33595 8.97546 8.98012 7.33129 11.0022 7.33129C13.0243 7.33129 14.6685 8.97546 14.6685 10.9975C14.6685 13.0196 13.0194 14.6638 11.0022 14.6638ZM18.1875 5.12761C18.1875 5.8589 17.5985 6.44295 16.8721 6.44295C16.1409 6.44295 15.5568 5.85399 15.5568 5.12761C15.5568 4.40123 16.1458 3.81227 16.8721 3.81227C17.5985 3.81227 18.1875 4.40123 18.1875 5.12761ZM21.9225 6.46258C21.839 4.70061 21.4366 3.13988 20.1458 1.85399C18.8599 0.568098 17.2991 0.165644 15.5372 0.0773006C13.7212 -0.0257669 8.27828 -0.0257669 6.46233 0.0773006C4.70528 0.160736 3.14454 0.56319 1.85374 1.84908C0.562946 3.13497 0.1654 4.69571 0.0770565 6.45767C-0.026011 8.27362 -0.026011 13.7166 0.0770565 15.5325C0.160492 17.2945 0.562946 18.8552 1.85374 20.1411C3.14454 21.427 4.70037 21.8294 6.46233 21.9178C8.27828 22.0209 13.7212 22.0209 15.5372 21.9178C17.2991 21.8344 18.8599 21.4319 20.1458 20.1411C21.4317 18.8552 21.8341 17.2945 21.9225 15.5325C22.0255 13.7166 22.0255 8.27853 21.9225 6.46258ZM19.5764 17.481C19.1936 18.4429 18.4525 19.184 17.4856 19.5718C16.0378 20.146 12.6022 20.0135 11.0022 20.0135C9.40221 20.0135 5.96172 20.1411 4.51877 19.5718C3.55681 19.189 2.81571 18.4479 2.42798 17.481C1.85374 16.0331 1.98626 12.5975 1.98626 10.9975C1.98626 9.39755 1.85865 5.95706 2.42798 4.51411C2.8108 3.55215 3.5519 2.81104 4.51877 2.42331C5.96663 1.84908 9.40221 1.9816 11.0022 1.9816C12.6022 1.9816 16.0427 1.85399 17.4856 2.42331C18.4476 2.80613 19.1887 3.54724 19.5764 4.51411C20.1507 5.96196 20.0182 9.39755 20.0182 10.9975C20.0182 12.5975 20.1507 16.038 19.5764 17.481Z" fill="#F5FEFB"/>
</svg>
