<?xml version="1.0" encoding="utf-8"?>
<!-- Generator: Adobe Illustrator 28.2.0, SVG Export Plug-In . SVG Version: 6.00 Build 0)  -->
<svg version="1.1" id="Layer_1" xmlns="http://www.w3.org/2000/svg" xmlns:xlink="http://www.w3.org/1999/xlink" x="0px" y="0px"
	 viewBox="0 0 24 24" style="enable-background:new 0 0 24 24;" xml:space="preserve">
<g>
	<path d="M12,23.9C5.4,23.9,0.1,18.6,0.1,12S5.4,0.1,12,0.1S23.9,5.4,23.9,12S18.6,23.9,12,23.9z M12,2.2c-5.4,0-9.8,4.4-9.8,9.8
		c0,5.4,4.4,9.8,9.8,9.8c5.4,0,9.8-4.4,9.8-9.8C21.8,6.6,17.4,2.2,12,2.2z M15.3,16.3c-0.3,0-0.6-0.1-0.8-0.3L12,13.5L9.5,16
		c-0.4,0.4-1.1,0.4-1.5,0c-0.4-0.4-0.4-1.1,0-1.5l2.5-2.5L8,9.5C7.6,9.1,7.6,8.4,8,8c0.4-0.4,1.1-0.4,1.5,0l2.5,2.5L14.5,8
		c0.4-0.4,1.1-0.4,1.5,0c0.4,0.4,0.4,1.1,0,1.5L13.5,12l2.5,2.5c0.4,0.4,0.4,1.1,0,1.5C15.8,16.2,15.5,16.3,15.3,16.3z"/>
</g>
</svg>
