<?xml version="1.0" encoding="utf-8"?>
<!-- Generator: Adobe Illustrator 28.2.0, SVG Export Plug-In . SVG Version: 6.00 Build 0)  -->
<svg version="1.1" id="Layer_1" xmlns="http://www.w3.org/2000/svg" xmlns:xlink="http://www.w3.org/1999/xlink" x="0px" y="0px"
	 viewBox="0 0 24 24" style="enable-background:new 0 0 24 24;" xml:space="preserve">
<path class='st0' d="M12,0C5.4,0,0,5.4,0,12s5.4,12,12,12s12-5.4,12-12S18.6,0,12,0z M18.7,8.7l-7.6,8C11,16.9,10.7,17,10.4,17c0,0,0,0,0,0
	c-0.3,0-0.5-0.1-0.7-0.3L6,12.9c-0.4-0.4-0.4-1,0-1.4s1-0.4,1.4,0l3,3l6.9-7.3c0.4-0.4,1-0.4,1.4,0C19.1,7.7,19.1,8.3,18.7,8.7z"/>
</svg>
