<svg width="24" height="17" viewBox="0 0 24 17" fill="none" xmlns="http://www.w3.org/2000/svg">
<path d="M23.5002 2.62364C23.2236 1.59039 22.4116 0.7784 21.3783 0.501811C19.5054 0 12 0 12 0C12 0 4.49457 0 2.62364 0.501811C1.59039 0.7784 0.7784 1.59039 0.501811 2.62364C0 4.49457 0 8.40039 0 8.40039C0 8.40039 0 12.3062 0.501811 14.1771C0.7784 15.2104 1.59039 16.0224 2.62364 16.299C4.49457 16.8008 12 16.8008 12 16.8008C12 16.8008 19.5054 16.8008 21.3764 16.299C22.4096 16.0224 23.2216 15.2104 23.4982 14.1771C24 12.3062 24 8.40039 24 8.40039C24 8.40039 24 4.49457 23.5002 2.62364ZM9.5996 12V4.80079L15.8347 8.40039L9.5996 12Z" fill="#F5FEFB"/>
</svg>
