<svg xmlns="http://www.w3.org/2000/svg" fill="none" viewBox="0 0 100 100">
    <style>
        rect, path { fill: hsla(158, 100%, 43.3%, 1) }
        .st0{fill:hsla(160, 81.8%, 97.8%, 1)}
        .st1{fill:hsla(159, 6.4%, 56.9%, 1)}
        @media (prefers-color-scheme: dark) {
            .st0{fill:hsla(159, 100%, 6.1%, 1)}
        }
    </style>
<rect width="100" height="100" rx="9" />
<circle class='st0' cx="50" cy="50" r="37.5"/>
<circle class='st1' cx="32.9412" cy="74.9412" r="4.94118"/>
<circle class='st1' cx="44.0588" cy="74.9412" r="4.94118"/>
<circle class='st1' cx="56.9412" cy="74.8427" r="4.94118"/>
<circle class='st1' cx="68.0588" cy="74.8427" r="4.94118"/>
<path d="M51.9452 23.6123H61.9257C65.3954 23.6123 67.9262 24.4287 69.5182 26.0615C71.1102 27.6535 71.9062 30.1231 71.9062 33.4703V36.1032C71.9062 40.5526 70.4367 43.3692 67.4976 44.553V44.6755C69.1304 45.1653 70.2734 46.1654 70.9265 47.6757C71.6205 49.1861 71.9674 51.2067 71.9674 53.7375V61.2688C71.9674 62.4934 72.0083 63.4935 72.0899 64.2691C72.1715 65.0038 72.3756 65.7386 72.7022 66.4734H65.8444C65.5995 65.7794 65.4362 65.1263 65.3546 64.514C65.2729 63.9017 65.2321 62.7996 65.2321 61.2076V53.3701C65.2321 51.4108 64.9056 50.0433 64.2524 49.2677C63.6401 48.4921 62.5584 48.1043 61.0072 48.1043H58.6805V66.4734H51.9452V23.6123ZM61.1297 41.9813C62.4768 41.9813 63.4769 41.6344 64.13 40.9404C64.8239 40.2465 65.1709 39.0831 65.1709 37.4503V34.1439C65.1709 32.5927 64.8852 31.4702 64.3137 30.7762C63.783 30.0823 62.9258 29.7353 61.742 29.7353H58.6805V41.9813H61.1297Z" />
<path d="M37.9193 67.0857C34.6537 67.0857 32.1841 66.1672 30.5104 64.3303C28.8368 62.4526 28 59.7789 28 56.3092V53.86H34.3679V56.799C34.3679 59.5748 35.5313 60.9627 37.858 60.9627C39.001 60.9627 39.8582 60.6361 40.4297 59.983C41.042 59.289 41.3482 58.1869 41.3482 56.6766C41.3482 54.8805 40.94 53.3089 40.1236 51.9618C39.3072 50.574 37.7968 48.9207 35.5925 47.0022C32.8168 44.553 30.8778 42.3487 29.7757 40.3893C28.6735 38.3892 28.1225 36.1441 28.1225 33.654C28.1225 30.266 28.9797 27.6535 30.6941 25.8166C32.4086 23.9389 34.8986 23 38.1642 23C41.389 23 43.8178 23.9389 45.4506 25.8166C47.1242 27.6535 47.961 30.3068 47.961 33.7765V35.5522H41.5931V33.3479C41.5931 31.8784 41.3073 30.817 40.7359 30.1639C40.1644 29.47 39.3276 29.123 38.2254 29.123C35.9803 29.123 34.8578 30.4905 34.8578 33.2254C34.8578 34.7766 35.266 36.2257 36.0824 37.5728C36.9396 38.9198 38.4703 40.5526 40.6746 42.4712C43.4912 44.9204 45.4302 47.1451 46.4915 49.1453C47.5528 51.1454 48.0835 53.4926 48.0835 56.1867C48.0835 59.6972 47.2058 62.3914 45.4506 64.2691C43.7361 66.1468 41.2257 67.0857 37.9193 67.0857Z"/>
</svg>
