<svg width="239" height="49" viewBox="0 0 239 49" fill="none" xmlns="http://www.w3.org/2000/svg">
<circle cx="146" cy="34" r="12" fill="#B0B8B5"/>
<circle cx="200" cy="34" r="12" fill="#B0B8B5"/>
<circle cx="173" cy="34" r="12" fill="#B0B8B5"/>
<circle cx="227" cy="34" r="12" fill="#B0B8B5"/>
<path d="M34.1098 46.024C33.4378 46.024 32.8031 45.9333 32.2058 45.752C31.6191 45.5813 31.0964 45.32 30.6378 44.968L31.0698 44.024C31.5498 44.3653 32.0244 44.6107 32.4938 44.76C32.9738 44.9093 33.4911 44.984 34.0458 44.984C35.5818 44.984 36.3498 44.1947 36.3498 42.616V41.24C36.1258 41.7307 35.7738 42.12 35.2938 42.408C34.8244 42.6853 34.2858 42.824 33.6778 42.824C32.9631 42.824 32.3444 42.6587 31.8218 42.328C31.2991 41.9973 30.8938 41.544 30.6058 40.968C30.3284 40.3813 30.1898 39.704 30.1898 38.936C30.1898 38.168 30.3284 37.496 30.6058 36.92C30.8938 36.3333 31.2991 35.88 31.8218 35.56C32.3444 35.24 32.9631 35.08 33.6778 35.08C34.2858 35.08 34.8244 35.2187 35.2938 35.496C35.7738 35.7733 36.1258 36.152 36.3498 36.632V35.224H37.6138V42.44C37.6138 43.6347 37.3151 44.5307 36.7178 45.128C36.1311 45.7253 35.2618 46.024 34.1098 46.024ZM33.9178 41.768C34.6644 41.768 35.2564 41.512 35.6938 41C36.1311 40.488 36.3498 39.8 36.3498 38.936C36.3498 38.072 36.1311 37.3893 35.6938 36.888C35.2564 36.376 34.6644 36.12 33.9178 36.12C33.1818 36.12 32.5951 36.376 32.1578 36.888C31.7204 37.3893 31.5018 38.072 31.5018 38.936C31.5018 39.8 31.7204 40.488 32.1578 41C32.5951 41.512 33.1818 41.768 33.9178 41.768ZM41.3248 43V35.224H42.5888V36.616C43.0048 35.6773 43.8581 35.16 45.1488 35.064L45.6128 35.016L45.7088 36.136L44.8928 36.232C44.1568 36.296 43.5968 36.5307 43.2128 36.936C42.8288 37.3307 42.6368 37.8747 42.6368 38.568V43H41.3248ZM50.709 43.144C50.1757 43.144 49.6957 43.0427 49.269 42.84C48.853 42.6267 48.5223 42.3387 48.277 41.976C48.0317 41.6133 47.909 41.208 47.909 40.76C47.909 40.1947 48.053 39.7467 48.341 39.416C48.6397 39.0853 49.125 38.8507 49.797 38.712C50.4797 38.5627 51.4077 38.488 52.581 38.488H53.093V37.992C53.093 37.3307 52.9543 36.856 52.677 36.568C52.4103 36.2693 51.9783 36.12 51.381 36.12C50.9117 36.12 50.4583 36.1893 50.021 36.328C49.5837 36.456 49.1357 36.6693 48.677 36.968L48.229 36.024C48.6343 35.736 49.125 35.5067 49.701 35.336C50.2877 35.1653 50.8477 35.08 51.381 35.08C52.3837 35.08 53.125 35.3253 53.605 35.816C54.0957 36.3067 54.341 37.0693 54.341 38.104V43H53.125V41.656C52.9223 42.1147 52.6077 42.4773 52.181 42.744C51.765 43.0107 51.2743 43.144 50.709 43.144ZM50.917 42.168C51.557 42.168 52.0797 41.9493 52.485 41.512C52.8903 41.064 53.093 40.4987 53.093 39.816V39.336H52.597C51.733 39.336 51.0503 39.3787 50.549 39.464C50.0583 39.5387 49.7117 39.6773 49.509 39.88C49.317 40.072 49.221 40.3387 49.221 40.68C49.221 41.1173 49.3703 41.4747 49.669 41.752C49.9783 42.0293 50.3943 42.168 50.917 42.168ZM58.0254 45.88V35.224H59.2894V36.616C59.524 36.136 59.8707 35.7627 60.3294 35.496C60.7987 35.2187 61.3427 35.08 61.9614 35.08C62.6547 35.08 63.2574 35.2453 63.7694 35.576C64.292 35.896 64.692 36.36 64.9694 36.968C65.2574 37.5653 65.4014 38.28 65.4014 39.112C65.4014 39.9333 65.2574 40.648 64.9694 41.256C64.692 41.8533 64.292 42.3173 63.7694 42.648C63.2574 42.9787 62.6547 43.144 61.9614 43.144C61.364 43.144 60.8307 43.0107 60.3614 42.744C59.892 42.4773 59.5454 42.1093 59.3214 41.64V45.88H58.0254ZM61.6894 42.104C62.4147 42.104 62.996 41.848 63.4334 41.336C63.8707 40.8133 64.0894 40.072 64.0894 39.112C64.0894 38.1413 63.8707 37.4 63.4334 36.888C62.996 36.376 62.4147 36.12 61.6894 36.12C60.964 36.12 60.3827 36.376 59.9454 36.888C59.508 37.4 59.2894 38.1413 59.2894 39.112C59.2894 40.072 59.508 40.8133 59.9454 41.336C60.3827 41.848 60.964 42.104 61.6894 42.104ZM68.6335 43V31.72H69.9295V36.504C70.1855 36.0347 70.5428 35.6827 71.0015 35.448C71.4708 35.2027 71.9935 35.08 72.5695 35.08C74.4148 35.08 75.3375 36.104 75.3375 38.152V43H74.0415V38.232C74.0415 37.5067 73.8975 36.9787 73.6095 36.648C73.3322 36.3067 72.8842 36.136 72.2655 36.136C71.5508 36.136 70.9802 36.36 70.5535 36.808C70.1375 37.2453 69.9295 37.832 69.9295 38.568V43H68.6335ZM78.8473 33.288V31.832H80.4473V33.288H78.8473ZM79.0073 43V35.224H80.3033V43H79.0073ZM87.302 43.144C86.5233 43.144 85.8513 42.9787 85.286 42.648C84.7207 42.3067 84.2833 41.832 83.974 41.224C83.6753 40.6053 83.526 39.8853 83.526 39.064C83.526 37.8267 83.862 36.856 84.534 36.152C85.206 35.4373 86.1287 35.08 87.302 35.08C87.782 35.08 88.2567 35.1653 88.726 35.336C89.1953 35.5067 89.5847 35.7467 89.894 36.056L89.446 37C89.1367 36.7013 88.7953 36.4827 88.422 36.344C88.0593 36.2053 87.7127 36.136 87.382 36.136C86.5713 36.136 85.9473 36.392 85.51 36.904C85.0727 37.4053 84.854 38.1307 84.854 39.08C84.854 40.008 85.0727 40.744 85.51 41.288C85.9473 41.8213 86.5713 42.088 87.382 42.088C87.7127 42.088 88.0593 42.0187 88.422 41.88C88.7953 41.7413 89.1367 41.5173 89.446 41.208L89.894 42.152C89.5847 42.4613 89.19 42.7067 88.71 42.888C88.2407 43.0587 87.7713 43.144 87.302 43.144ZM101.042 43.144C100.348 43.144 99.7403 42.9787 99.2176 42.648C98.7056 42.3173 98.3056 41.8533 98.0176 41.256C97.7403 40.648 97.6016 39.9333 97.6016 39.112C97.6016 38.28 97.7403 37.5653 98.0176 36.968C98.3056 36.36 98.7056 35.896 99.2176 35.576C99.7403 35.2453 100.348 35.08 101.042 35.08C101.65 35.08 102.183 35.2133 102.642 35.48C103.111 35.7467 103.458 36.1147 103.682 36.584V31.72H104.978V43H103.714V41.576C103.49 42.0667 103.143 42.4507 102.674 42.728C102.204 43.0053 101.66 43.144 101.042 43.144ZM101.314 42.104C102.039 42.104 102.62 41.848 103.058 41.336C103.495 40.8133 103.714 40.072 103.714 39.112C103.714 38.1413 103.495 37.4 103.058 36.888C102.62 36.376 102.039 36.12 101.314 36.12C100.578 36.12 99.991 36.376 99.5536 36.888C99.127 37.4 98.9136 38.1413 98.9136 39.112C98.9136 40.072 99.127 40.8133 99.5536 41.336C99.991 41.848 100.578 42.104 101.314 42.104ZM112.194 43.144C110.967 43.144 109.996 42.7867 109.282 42.072C108.567 41.3467 108.21 40.3653 108.21 39.128C108.21 38.328 108.37 37.624 108.69 37.016C109.01 36.3973 109.447 35.9227 110.002 35.592C110.567 35.2507 111.218 35.08 111.954 35.08C113.01 35.08 113.836 35.4213 114.434 36.104C115.031 36.776 115.33 37.704 115.33 38.888V39.384H109.474C109.516 40.2693 109.772 40.9467 110.242 41.416C110.711 41.8747 111.362 42.104 112.194 42.104C112.663 42.104 113.111 42.0347 113.538 41.896C113.964 41.7467 114.37 41.5067 114.754 41.176L115.202 42.088C114.85 42.4187 114.402 42.68 113.858 42.872C113.314 43.0533 112.759 43.144 112.194 43.144ZM111.986 36.04C111.25 36.04 110.668 36.2693 110.242 36.728C109.815 37.1867 109.564 37.7893 109.49 38.536H114.21C114.178 37.7467 113.97 37.1333 113.586 36.696C113.212 36.2587 112.679 36.04 111.986 36.04ZM121.109 43.144C120.501 43.144 119.925 43.0587 119.381 42.888C118.837 42.7173 118.389 42.4773 118.037 42.168L118.453 41.256C118.837 41.5653 119.259 41.7947 119.717 41.944C120.187 42.0827 120.661 42.152 121.141 42.152C121.749 42.152 122.208 42.04 122.517 41.816C122.827 41.592 122.981 41.288 122.981 40.904C122.981 40.6053 122.88 40.3707 122.677 40.2C122.475 40.0187 122.155 39.88 121.717 39.784L120.261 39.464C118.939 39.176 118.277 38.4933 118.277 37.416C118.277 36.712 118.555 36.1467 119.109 35.72C119.675 35.2933 120.411 35.08 121.317 35.08C121.851 35.08 122.357 35.1653 122.837 35.336C123.328 35.496 123.733 35.736 124.053 36.056L123.621 36.968C123.312 36.68 122.949 36.4613 122.533 36.312C122.128 36.152 121.723 36.072 121.317 36.072C120.72 36.072 120.267 36.1893 119.957 36.424C119.648 36.6587 119.493 36.968 119.493 37.352C119.493 37.9493 119.888 38.3333 120.677 38.504L122.133 38.808C122.816 38.9573 123.333 39.1973 123.685 39.528C124.037 39.848 124.213 40.2853 124.213 40.84C124.213 41.5547 123.931 42.12 123.365 42.536C122.8 42.9413 122.048 43.144 121.109 43.144ZM127.309 33.288V31.832H128.909V33.288H127.309ZM127.469 43V35.224H128.765V43H127.469ZM135.907 46.024C135.235 46.024 134.601 45.9333 134.003 45.752C133.417 45.5813 132.894 45.32 132.435 44.968L132.867 44.024C133.347 44.3653 133.822 44.6107 134.291 44.76C134.771 44.9093 135.289 44.984 135.843 44.984C137.379 44.984 138.147 44.1947 138.147 42.616V41.24C137.923 41.7307 137.571 42.12 137.091 42.408C136.622 42.6853 136.083 42.824 135.475 42.824C134.761 42.824 134.142 42.6587 133.619 42.328C133.097 41.9973 132.691 41.544 132.403 40.968C132.126 40.3813 131.987 39.704 131.987 38.936C131.987 38.168 132.126 37.496 132.403 36.92C132.691 36.3333 133.097 35.88 133.619 35.56C134.142 35.24 134.761 35.08 135.475 35.08C136.083 35.08 136.622 35.2187 137.091 35.496C137.571 35.7733 137.923 36.152 138.147 36.632V35.224H139.411V42.44C139.411 43.6347 139.113 44.5307 138.515 45.128C137.929 45.7253 137.059 46.024 135.907 46.024ZM135.715 41.768C136.462 41.768 137.054 41.512 137.491 41C137.929 40.488 138.147 39.8 138.147 38.936C138.147 38.072 137.929 37.3893 137.491 36.888C137.054 36.376 136.462 36.12 135.715 36.12C134.979 36.12 134.393 36.376 133.955 36.888C133.518 37.3893 133.299 38.072 133.299 38.936C133.299 39.8 133.518 40.488 133.955 41C134.393 41.512 134.979 41.768 135.715 41.768ZM143.122 43V35.224H144.386V36.552C144.642 36.0613 145.005 35.6933 145.474 35.448C145.944 35.2027 146.472 35.08 147.058 35.08C148.904 35.08 149.826 36.104 149.826 38.152V43H148.53V38.232C148.53 37.5067 148.386 36.9787 148.098 36.648C147.821 36.3067 147.373 36.136 146.754 36.136C146.04 36.136 145.469 36.36 145.042 36.808C144.626 37.2453 144.418 37.832 144.418 38.568V43H143.122Z" fill="#F5FFFB"/>
<path d="M6.16925 29.32C4.46258 29.32 3.17192 28.84 2.29725 27.88C1.42258 26.8987 0.98525 25.5013 0.98525 23.688V22.408H4.31325V23.944C4.31325 25.3947 4.92125 26.12 6.13725 26.12C6.73458 26.12 7.18258 25.9493 7.48125 25.608C7.80125 25.2453 7.96125 24.6693 7.96125 23.88C7.96125 22.9413 7.74792 22.12 7.32125 21.416C6.89458 20.6907 6.10525 19.8267 4.95325 18.824C3.50258 17.544 2.48925 16.392 1.91325 15.368C1.33725 14.3227 1.04925 13.1493 1.04925 11.848C1.04925 10.0773 1.49725 8.712 2.39325 7.752C3.28925 6.77067 4.59058 6.28 6.29725 6.28C7.98258 6.28 9.25192 6.77067 10.1053 7.752C10.9799 8.712 11.4173 10.0987 11.4173 11.912V12.84H8.08925V11.688C8.08925 10.92 7.93992 10.3653 7.64125 10.024C7.34258 9.66133 6.90525 9.48 6.32925 9.48C5.15592 9.48 4.56925 10.1947 4.56925 11.624C4.56925 12.4347 4.78258 13.192 5.20925 13.896C5.65725 14.6 6.45725 15.4533 7.60925 16.456C9.08125 17.736 10.0946 18.8987 10.6493 19.944C11.2039 20.9893 11.4813 22.216 11.4813 23.624C11.4813 25.4587 11.0226 26.8667 10.1053 27.848C9.20925 28.8293 7.89725 29.32 6.16925 29.32ZM16.2515 9.8H12.5715V6.6H23.4515V9.8H19.7715V29H16.2515V9.8ZM25.1558 6.6H34.7558V9.8H28.6758V15.72H33.5078V18.92H28.6758V25.8H34.7558V29H25.1558V6.6ZM35.8528 6.6H39.4048L41.7088 23.976H41.7728L44.0768 6.6H47.3088L43.9167 29H39.2448L35.8528 6.6ZM48.9995 6.6H58.5995V9.8H52.5195V15.72H57.3515V18.92H52.5195V25.8H58.5995V29H48.9995V6.6ZM60.6245 6.6H70.2245V9.8H64.1445V15.72H68.9765V18.92H64.1445V25.8H70.2245V29H60.6245V6.6ZM77.3745 6.6H82.5905C84.4038 6.6 85.7265 7.02667 86.5585 7.88C87.3905 8.712 87.8065 10.0027 87.8065 11.752V13.128C87.8065 15.4533 87.0385 16.9253 85.5025 17.544V17.608C86.3558 17.864 86.9532 18.3867 87.2945 19.176C87.6572 19.9653 87.8385 21.0213 87.8385 22.344V26.28C87.8385 26.92 87.8598 27.4427 87.9025 27.848C87.9452 28.232 88.0518 28.616 88.2225 29H84.6385C84.5105 28.6373 84.4252 28.296 84.3825 27.976C84.3398 27.656 84.3185 27.08 84.3185 26.248V22.152C84.3185 21.128 84.1478 20.4133 83.8065 20.008C83.4865 19.6027 82.9212 19.4 82.1105 19.4H80.8945V29H77.3745V6.6ZM82.1745 16.2C82.8785 16.2 83.4012 16.0187 83.7425 15.656C84.1052 15.2933 84.2865 14.6853 84.2865 13.832V12.104C84.2865 11.2933 84.1372 10.7067 83.8385 10.344C83.5612 9.98133 83.1132 9.8 82.4945 9.8H80.8945V16.2H82.1745ZM95.3688 29.32C93.6408 29.32 92.3181 28.8293 91.4008 27.848C90.4834 26.8667 90.0247 25.48 90.0247 23.688V11.912C90.0247 10.12 90.4834 8.73333 91.4008 7.752C92.3181 6.77067 93.6408 6.28 95.3688 6.28C97.0968 6.28 98.4194 6.77067 99.3368 7.752C100.254 8.73333 100.713 10.12 100.713 11.912V23.688C100.713 25.48 100.254 26.8667 99.3368 27.848C98.4194 28.8293 97.0968 29.32 95.3688 29.32ZM95.3688 26.12C96.5848 26.12 97.1927 25.384 97.1927 23.912V11.688C97.1927 10.216 96.5848 9.48 95.3688 9.48C94.1528 9.48 93.5448 10.216 93.5448 11.688V23.912C93.5448 25.384 94.1528 26.12 95.3688 26.12ZM108.085 29.32C106.379 29.32 105.077 28.84 104.181 27.88C103.285 26.8987 102.837 25.5013 102.837 23.688V11.912C102.837 10.0987 103.285 8.712 104.181 7.752C105.077 6.77067 106.379 6.28 108.085 6.28C109.792 6.28 111.093 6.77067 111.989 7.752C112.885 8.712 113.333 10.0987 113.333 11.912V13.832H110.005V11.688C110.005 10.216 109.397 9.48 108.181 9.48C106.965 9.48 106.357 10.216 106.357 11.688V23.944C106.357 25.3947 106.965 26.12 108.181 26.12C109.397 26.12 110.005 25.3947 110.005 23.944V19.56H108.245V16.36H113.333V23.688C113.333 25.5013 112.885 26.8987 111.989 27.88C111.093 28.84 109.792 29.32 108.085 29.32ZM115.593 6.6H125.193V9.8H119.113V15.72H123.945V18.92H119.113V25.8H125.193V29H115.593V6.6ZM127.218 6.6H132.434C134.248 6.6 135.57 7.02667 136.402 7.88C137.234 8.712 137.65 10.0027 137.65 11.752V13.128C137.65 15.4533 136.882 16.9253 135.346 17.544V17.608C136.2 17.864 136.797 18.3867 137.138 19.176C137.501 19.9653 137.682 21.0213 137.682 22.344V26.28C137.682 26.92 137.704 27.4427 137.746 27.848C137.789 28.232 137.896 28.616 138.066 29H134.482C134.354 28.6373 134.269 28.296 134.226 27.976C134.184 27.656 134.162 27.08 134.162 26.248V22.152C134.162 21.128 133.992 20.4133 133.65 20.008C133.33 19.6027 132.765 19.4 131.954 19.4H130.738V29H127.218V6.6ZM132.018 16.2C132.722 16.2 133.245 16.0187 133.586 15.656C133.949 15.2933 134.13 14.6853 134.13 13.832V12.104C134.13 11.2933 133.981 10.7067 133.682 10.344C133.405 9.98133 132.957 9.8 132.338 9.8H130.738V16.2H132.018ZM144.701 29.32C142.994 29.32 141.703 28.84 140.829 27.88C139.954 26.8987 139.517 25.5013 139.517 23.688V22.408H142.845V23.944C142.845 25.3947 143.453 26.12 144.669 26.12C145.266 26.12 145.714 25.9493 146.013 25.608C146.333 25.2453 146.493 24.6693 146.493 23.88C146.493 22.9413 146.279 22.12 145.853 21.416C145.426 20.6907 144.637 19.8267 143.485 18.824C142.034 17.544 141.021 16.392 140.445 15.368C139.869 14.3227 139.581 13.1493 139.581 11.848C139.581 10.0773 140.029 8.712 140.924 7.752C141.821 6.77067 143.122 6.28 144.829 6.28C146.514 6.28 147.783 6.77067 148.637 7.752C149.511 8.712 149.949 10.0987 149.949 11.912V12.84H146.621V11.688C146.621 10.92 146.471 10.3653 146.173 10.024C145.874 9.66133 145.437 9.48 144.861 9.48C143.687 9.48 143.101 10.1947 143.101 11.624C143.101 12.4347 143.314 13.192 143.741 13.896C144.189 14.6 144.989 15.4533 146.141 16.456C147.613 17.736 148.626 18.8987 149.181 19.944C149.735 20.9893 150.013 22.216 150.013 23.624C150.013 25.4587 149.554 26.8667 148.637 27.848C147.741 28.8293 146.429 29.32 144.701 29.32Z" fill="#00DE8D"/>
</svg>
